# xmcd CD database file generated by Grip 3.1.4
# 
# Track frame offsets:
#       150
#       22322
#       39237
#       50055
#       62767
#       85925
#       103642
#       124840
#       142787
#       169867
#       186607
#       200055
#       216522
#       234062
#       249440
# 
# Disc length: 3651 seconds
# 
# Revision: 4
# Processed by: cddbd v1.5.1PL0 Copyright (c) Steve Scherf et al.
# Submitted via: Grip 3.1.4
# 
DISCID=dc0e410f
DTITLE=Various Artist - Slide Guitar Blues
DYEAR=1995
DGENRE=Blues
TTITLE0=Mojo Boogie - Johnny Winter
TTITLE1=Ramblin - Michael Henderson and Bluebloods
TTITLE2=Pinegrove Blues - Sonny Landreth
TTITLE3=The Sky is Crying - Elmore James
TTITLE4=Doin' all the Wrong Things Right - Dr Hector and The Grove Injectors
TTITLE5=Everybodys Gettin Some - Fred James
TTITLE6=Cleveland Mississippi - The Bluebirds
TTITLE7=Tell Me Baby - Homesick James
TTITLE8=Death Letter Blues - Ace Moreland
TTITLE9=Easy Rider - Blind Mississippi Morris
TTITLE10=Larrys Shuffle - Larry Burton
TTITLE11=Great Big Fanny - Bill Wharton and The Ingredients
TTITLE12=Put The Shoe On The Other Foot - Sony Rhodes
TTITLE13=Crossroads - Bleu Jackson
TTITLE14=Early One Mornin' - The Sam Lay Band
EXTD=YEAR: 1995 ID3G: 0
EXTT0=
EXTT1=
EXTT2=
EXTT3=
EXTT4=
EXTT5=
EXTT6=
EXTT7=
EXTT8=
EXTT9=
EXTT10=
EXTT11=
EXTT12=
EXTT13=
EXTT14=
PLAYORDER=
